# xmcd CD database file
#
# Track frame offsets:
#	150
#	12422
#	24405
#	38480
#	53785
#	64677
#	76375
#	93120
#	106365
#	122390
#	135582
#	147200
#	158907
#	172587
#
# Disc length: 2449 seconds
#
# Revision: 0
# Processed by: cddbd v1.5.2PL0 Copyright (c) Steve Scherf et al.
# Submitted via: CDex 1.70beta2
#
DISCID=9f098f0e
DTITLE=Louis Arrmstrong - O Incrível ao vivo
DYEAR=1900
DGENRE=Blues
TTITLE0=When The Saints Go Marching
TTITLE1=Jeepers Creepers
TTITLE2=Lazy River
TTITLE3=Georgia On My Mind
TTITLE4=On The Sentimental Side
TTITLE5=Alexander's Ragtime Band
TTITLE6=Wrap Up Your Troubles In Dreams
TTITLE7=On The Sunny Side Of The Street
TTITLE8=Stardust
TTITLE9=Ain't Misbehavin'
TTITLE10=Satchomo Mouth Swing
TTITLE11=It's Wonderful
TTITLE12=All Of Me
TTITLE13=Shadrack
EXTD=
EXTT0=
EXTT1=
EXTT2=
EXTT3=
EXTT4=
EXTT5=
EXTT6=
EXTT7=
EXTT8=
EXTT9=
EXTT10=
EXTT11=
EXTT12=
EXTT13=
PLAYORDER=
